<mxfile host="app.diagrams.net" modified="2023-12-15T14:31:02.375Z" agent="Mozilla/5.0 (Windows NT 10.0; Win64; x64) AppleWebKit/537.36 (KHTML, like Gecko) Chrome/120.0.0.0 Safari/537.36" etag="k0VL12FbDGH_jnnwVK6C" version="22.1.9" type="github">
  <diagram name="Page-1" id="90a13364-a465-7bf4-72fc-28e22215d7a0">
    <mxGraphModel dx="3966.5" dy="965" grid="1" gridSize="10" guides="1" tooltips="1" connect="1" arrows="1" fold="1" page="1" pageScale="1.5" pageWidth="1169" pageHeight="826" background="none" math="0" shadow="0">
      <root>
        <mxCell id="0" style=";html=1;" />
        <mxCell id="1" style=";html=1;" parent="0" />
        <mxCell id="3a17f1ce550125da-1" value="Software Control" style="whiteSpace=wrap;html=1;shadow=1;fontSize=20;fillColor=#f5f5f5;strokeColor=#666666;strokeWidth=2;dashed=1;" parent="1" vertex="1">
          <mxGeometry x="-700" y="40" width="150" height="60" as="geometry" />
        </mxCell>
        <mxCell id="3a17f1ce550125da-13" style="edgeStyle=elbowEdgeStyle;rounded=0;html=1;startArrow=none;startFill=0;jettySize=auto;orthogonalLoop=1;fontSize=18;elbow=vertical;" parent="1" source="3a17f1ce550125da-2" target="3a17f1ce550125da-4" edge="1">
          <mxGeometry relative="1" as="geometry" />
        </mxCell>
        <mxCell id="3a17f1ce550125da-14" style="edgeStyle=elbowEdgeStyle;rounded=0;html=1;startArrow=none;startFill=0;jettySize=auto;orthogonalLoop=1;fontSize=18;elbow=vertical;" parent="1" source="3a17f1ce550125da-2" target="3a17f1ce550125da-5" edge="1">
          <mxGeometry relative="1" as="geometry" />
        </mxCell>
        <mxCell id="3a17f1ce550125da-15" style="edgeStyle=elbowEdgeStyle;rounded=0;html=1;startArrow=none;startFill=0;jettySize=auto;orthogonalLoop=1;fontSize=18;elbow=vertical;" parent="1" source="3a17f1ce550125da-2" target="3a17f1ce550125da-6" edge="1">
          <mxGeometry relative="1" as="geometry" />
        </mxCell>
        <mxCell id="3a17f1ce550125da-16" style="edgeStyle=elbowEdgeStyle;rounded=0;html=1;startArrow=none;startFill=0;jettySize=auto;orthogonalLoop=1;fontSize=18;elbow=vertical;" parent="1" source="3a17f1ce550125da-2" target="3a17f1ce550125da-7" edge="1">
          <mxGeometry relative="1" as="geometry" />
        </mxCell>
        <mxCell id="3a17f1ce550125da-17" style="edgeStyle=elbowEdgeStyle;rounded=0;html=1;startArrow=none;startFill=0;jettySize=auto;orthogonalLoop=1;fontSize=18;" parent="1" source="3a17f1ce550125da-10" target="3a17f1ce550125da-2" edge="1">
          <mxGeometry relative="1" as="geometry">
            <Array as="points">
              <mxPoint x="-590" y="450" />
            </Array>
          </mxGeometry>
        </mxCell>
        <mxCell id="3a17f1ce550125da-2" value="Custom switch Matrix&lt;div&gt;&lt;br&gt;&lt;/div&gt;&lt;div&gt;(switches, couplers, mixer, amps, attenu, splitters)&lt;/div&gt;" style="whiteSpace=wrap;html=1;shadow=1;fontSize=18;fillColor=#f5f5f5;strokeColor=#666666;" parent="1" vertex="1">
          <mxGeometry x="-710" y="150" width="170" height="280" as="geometry" />
        </mxCell>
        <mxCell id="3a17f1ce550125da-4" value="Spectrum Analyzer" style="whiteSpace=wrap;html=1;shadow=1;fontSize=18;fillColor=#f5f5f5;strokeColor=#666666;" parent="1" vertex="1">
          <mxGeometry x="-460" y="140" width="120" height="60" as="geometry" />
        </mxCell>
        <mxCell id="3a17f1ce550125da-5" value="Network Analyzer" style="whiteSpace=wrap;html=1;shadow=1;fontSize=18;fillColor=#f5f5f5;strokeColor=#666666;" parent="1" vertex="1">
          <mxGeometry x="-460" y="220" width="120" height="60" as="geometry" />
        </mxCell>
        <mxCell id="3a17f1ce550125da-6" value="Power Meter" style="whiteSpace=wrap;html=1;shadow=1;fontSize=18;fillColor=#f5f5f5;strokeColor=#666666;" parent="1" vertex="1">
          <mxGeometry x="-460" y="300" width="120" height="60" as="geometry" />
        </mxCell>
        <mxCell id="3a17f1ce550125da-7" value="Freq. Count" style="whiteSpace=wrap;html=1;shadow=1;fontSize=18;fillColor=#f5f5f5;strokeColor=#666666;" parent="1" vertex="1">
          <mxGeometry x="-460" y="380" width="120" height="60" as="geometry" />
        </mxCell>
        <mxCell id="3a17f1ce550125da-20" style="edgeStyle=elbowEdgeStyle;rounded=0;html=1;startArrow=none;startFill=0;jettySize=auto;orthogonalLoop=1;fontSize=18;elbow=vertical;" parent="1" source="3a17f1ce550125da-8" target="3a17f1ce550125da-2" edge="1">
          <mxGeometry relative="1" as="geometry">
            <Array as="points">
              <mxPoint x="-740" y="210" />
            </Array>
          </mxGeometry>
        </mxCell>
        <mxCell id="3a17f1ce550125da-8" value="Vector Signal Generator" style="whiteSpace=wrap;html=1;shadow=1;fontSize=18;fillColor=#f5f5f5;strokeColor=#666666;" parent="1" vertex="1">
          <mxGeometry x="-900" y="140" width="120" height="150" as="geometry" />
        </mxCell>
        <mxCell id="3a17f1ce550125da-21" style="edgeStyle=elbowEdgeStyle;rounded=0;html=1;startArrow=none;startFill=0;jettySize=auto;orthogonalLoop=1;fontSize=18;elbow=vertical;" parent="1" source="3a17f1ce550125da-9" target="3a17f1ce550125da-2" edge="1">
          <mxGeometry relative="1" as="geometry" />
        </mxCell>
        <mxCell id="3a17f1ce550125da-9" value="ARB / Mod Source" style="whiteSpace=wrap;html=1;shadow=1;fontSize=18;fillColor=#f5f5f5;strokeColor=#666666;" parent="1" vertex="1">
          <mxGeometry x="-900" y="330" width="120" height="60" as="geometry" />
        </mxCell>
        <mxCell id="3a17f1ce550125da-10" value="DUT" style="whiteSpace=wrap;html=1;shadow=1;fontSize=18;fillColor=#f5f5f5;strokeColor=#666666;" parent="1" vertex="1">
          <mxGeometry x="-697.5" y="470" width="145" height="120" as="geometry" />
        </mxCell>
        <mxCell id="3a17f1ce550125da-18" style="edgeStyle=elbowEdgeStyle;rounded=0;html=1;startArrow=none;startFill=0;jettySize=auto;orthogonalLoop=1;fontSize=18;elbow=vertical;" parent="1" source="3a17f1ce550125da-11" target="3a17f1ce550125da-10" edge="1">
          <mxGeometry relative="1" as="geometry" />
        </mxCell>
        <mxCell id="3a17f1ce550125da-11" value="DC Power Supplies" style="whiteSpace=wrap;html=1;shadow=1;fontSize=18;fillColor=#f5f5f5;strokeColor=#666666;" parent="1" vertex="1">
          <mxGeometry x="-672.5" y="680" width="120" height="60" as="geometry" />
        </mxCell>
        <mxCell id="3a17f1ce550125da-22" style="edgeStyle=elbowEdgeStyle;rounded=0;html=1;startArrow=none;startFill=0;jettySize=auto;orthogonalLoop=1;fontSize=18;" parent="1" source="3a17f1ce550125da-10" target="3a17f1ce550125da-2" edge="1">
          <mxGeometry relative="1" as="geometry">
            <mxPoint x="-560" y="480" as="sourcePoint" />
            <mxPoint x="-560" y="440" as="targetPoint" />
            <Array as="points">
              <mxPoint x="-570" y="450" />
              <mxPoint x="-590" y="450" />
            </Array>
          </mxGeometry>
        </mxCell>
        <mxCell id="3a17f1ce550125da-23" style="edgeStyle=elbowEdgeStyle;rounded=0;html=1;startArrow=none;startFill=0;jettySize=auto;orthogonalLoop=1;fontSize=18;" parent="1" edge="1">
          <mxGeometry relative="1" as="geometry">
            <mxPoint x="-610" y="470" as="sourcePoint" />
            <mxPoint x="-610" y="430" as="targetPoint" />
            <Array as="points">
              <mxPoint x="-610" y="450" />
              <mxPoint x="-610" y="450" />
            </Array>
          </mxGeometry>
        </mxCell>
        <mxCell id="3a17f1ce550125da-24" style="edgeStyle=elbowEdgeStyle;rounded=0;html=1;startArrow=none;startFill=0;jettySize=auto;orthogonalLoop=1;fontSize=18;" parent="1" edge="1">
          <mxGeometry relative="1" as="geometry">
            <mxPoint x="-640" y="430" as="sourcePoint" />
            <mxPoint x="-640" y="470" as="targetPoint" />
            <Array as="points">
              <mxPoint x="-640" y="450" />
              <mxPoint x="-610" y="460" />
            </Array>
          </mxGeometry>
        </mxCell>
        <mxCell id="3a17f1ce550125da-25" style="edgeStyle=elbowEdgeStyle;rounded=0;html=1;startArrow=none;startFill=0;jettySize=auto;orthogonalLoop=1;fontSize=18;" parent="1" edge="1">
          <mxGeometry relative="1" as="geometry">
            <mxPoint x="-660" y="430" as="sourcePoint" />
            <mxPoint x="-660" y="470" as="targetPoint" />
            <Array as="points">
              <mxPoint x="-660" y="450" />
              <mxPoint x="-630" y="460" />
            </Array>
          </mxGeometry>
        </mxCell>
        <mxCell id="3a17f1ce550125da-26" style="edgeStyle=elbowEdgeStyle;rounded=0;html=1;startArrow=none;startFill=0;jettySize=auto;orthogonalLoop=1;fontSize=18;" parent="1" edge="1">
          <mxGeometry relative="1" as="geometry">
            <mxPoint x="-680" y="430" as="sourcePoint" />
            <mxPoint x="-680" y="470" as="targetPoint" />
            <Array as="points">
              <mxPoint x="-680" y="450" />
              <mxPoint x="-650" y="460" />
            </Array>
          </mxGeometry>
        </mxCell>
        <mxCell id="uJ0YXpQ2GnYNy6p2UynF-14" style="edgeStyle=orthogonalEdgeStyle;rounded=0;orthogonalLoop=1;jettySize=auto;html=1;entryX=0;entryY=0.5;entryDx=0;entryDy=0;" edge="1" parent="1" source="uJ0YXpQ2GnYNy6p2UynF-2" target="uJ0YXpQ2GnYNy6p2UynF-3">
          <mxGeometry relative="1" as="geometry" />
        </mxCell>
        <mxCell id="uJ0YXpQ2GnYNy6p2UynF-21" value="&lt;font style=&quot;font-size: 18px;&quot;&gt;y_rep&lt;/font&gt;" style="edgeLabel;html=1;align=center;verticalAlign=middle;resizable=0;points=[];" vertex="1" connectable="0" parent="uJ0YXpQ2GnYNy6p2UynF-14">
          <mxGeometry x="-0.1075" y="-1" relative="1" as="geometry">
            <mxPoint as="offset" />
          </mxGeometry>
        </mxCell>
        <mxCell id="uJ0YXpQ2GnYNy6p2UynF-2" value="입력&amp;nbsp; 데이터&lt;br&gt;a_bit" style="whiteSpace=wrap;html=1;shadow=1;fontSize=18;fillColor=#f5f5f5;strokeColor=#666666;" vertex="1" parent="1">
          <mxGeometry x="200" y="400" width="120" height="60" as="geometry" />
        </mxCell>
        <mxCell id="uJ0YXpQ2GnYNy6p2UynF-15" style="edgeStyle=orthogonalEdgeStyle;rounded=0;orthogonalLoop=1;jettySize=auto;html=1;entryX=0;entryY=0.5;entryDx=0;entryDy=0;" edge="1" parent="1" source="uJ0YXpQ2GnYNy6p2UynF-3" target="uJ0YXpQ2GnYNy6p2UynF-5">
          <mxGeometry relative="1" as="geometry" />
        </mxCell>
        <mxCell id="uJ0YXpQ2GnYNy6p2UynF-3" value="Hamming&lt;br&gt;부호화" style="whiteSpace=wrap;html=1;shadow=1;fontSize=18;fillColor=#f5f5f5;strokeColor=#666666;" vertex="1" parent="1">
          <mxGeometry x="400" y="400" width="120" height="60" as="geometry" />
        </mxCell>
        <mxCell id="uJ0YXpQ2GnYNy6p2UynF-17" style="edgeStyle=orthogonalEdgeStyle;rounded=0;orthogonalLoop=1;jettySize=auto;html=1;entryX=0.5;entryY=0;entryDx=0;entryDy=0;" edge="1" parent="1" source="uJ0YXpQ2GnYNy6p2UynF-5" target="uJ0YXpQ2GnYNy6p2UynF-7">
          <mxGeometry relative="1" as="geometry">
            <Array as="points">
              <mxPoint x="780" y="430" />
            </Array>
          </mxGeometry>
        </mxCell>
        <mxCell id="uJ0YXpQ2GnYNy6p2UynF-22" value="&lt;font style=&quot;font-size: 18px;&quot;&gt;y_rep&lt;/font&gt;" style="edgeLabel;html=1;align=center;verticalAlign=middle;resizable=0;points=[];" vertex="1" connectable="0" parent="uJ0YXpQ2GnYNy6p2UynF-17">
          <mxGeometry x="0.3763" y="3" relative="1" as="geometry">
            <mxPoint as="offset" />
          </mxGeometry>
        </mxCell>
        <mxCell id="uJ0YXpQ2GnYNy6p2UynF-5" value="Modulation&lt;br&gt;(QPSK, 8PSK&lt;br&gt;16QAM)" style="whiteSpace=wrap;html=1;shadow=1;fontSize=18;fillColor=#f5f5f5;strokeColor=#666666;" vertex="1" parent="1">
          <mxGeometry x="600" y="400" width="120" height="60" as="geometry" />
        </mxCell>
        <mxCell id="uJ0YXpQ2GnYNy6p2UynF-23" style="edgeStyle=orthogonalEdgeStyle;rounded=0;orthogonalLoop=1;jettySize=auto;html=1;entryX=1;entryY=0.5;entryDx=0;entryDy=0;" edge="1" parent="1" source="uJ0YXpQ2GnYNy6p2UynF-7" target="uJ0YXpQ2GnYNy6p2UynF-12">
          <mxGeometry relative="1" as="geometry" />
        </mxCell>
        <mxCell id="uJ0YXpQ2GnYNy6p2UynF-24" value="&lt;font style=&quot;font-size: 18px;&quot;&gt;y&lt;/font&gt;" style="edgeLabel;html=1;align=center;verticalAlign=middle;resizable=0;points=[];" vertex="1" connectable="0" parent="uJ0YXpQ2GnYNy6p2UynF-23">
          <mxGeometry x="-0.3439" y="1" relative="1" as="geometry">
            <mxPoint as="offset" />
          </mxGeometry>
        </mxCell>
        <mxCell id="uJ0YXpQ2GnYNy6p2UynF-7" value="Channel&lt;br&gt;(AWGN)" style="whiteSpace=wrap;html=1;shadow=1;fontSize=18;fillColor=#f5f5f5;strokeColor=#666666;" vertex="1" parent="1">
          <mxGeometry x="720" y="559.5" width="120" height="60" as="geometry" />
        </mxCell>
        <mxCell id="uJ0YXpQ2GnYNy6p2UynF-30" style="edgeStyle=orthogonalEdgeStyle;rounded=0;orthogonalLoop=1;jettySize=auto;html=1;entryX=1;entryY=0.5;entryDx=0;entryDy=0;" edge="1" parent="1" source="uJ0YXpQ2GnYNy6p2UynF-9" target="uJ0YXpQ2GnYNy6p2UynF-13">
          <mxGeometry relative="1" as="geometry" />
        </mxCell>
        <mxCell id="uJ0YXpQ2GnYNy6p2UynF-9" value="Output&lt;br&gt;transducer" style="whiteSpace=wrap;html=1;shadow=1;fontSize=18;fillColor=#f5f5f5;strokeColor=#666666;" vertex="1" parent="1">
          <mxGeometry x="150" y="720" width="120" height="60" as="geometry" />
        </mxCell>
        <mxCell id="uJ0YXpQ2GnYNy6p2UynF-20" style="edgeStyle=orthogonalEdgeStyle;rounded=0;orthogonalLoop=1;jettySize=auto;html=1;entryX=1;entryY=0.5;entryDx=0;entryDy=0;" edge="1" parent="1" source="uJ0YXpQ2GnYNy6p2UynF-10" target="uJ0YXpQ2GnYNy6p2UynF-9">
          <mxGeometry relative="1" as="geometry" />
        </mxCell>
        <mxCell id="uJ0YXpQ2GnYNy6p2UynF-29" value="&lt;font style=&quot;font-size: 18px;&quot;&gt;rx_a_bit&lt;/font&gt;" style="edgeLabel;html=1;align=center;verticalAlign=middle;resizable=0;points=[];" vertex="1" connectable="0" parent="uJ0YXpQ2GnYNy6p2UynF-20">
          <mxGeometry x="0.0046" y="-1" relative="1" as="geometry">
            <mxPoint as="offset" />
          </mxGeometry>
        </mxCell>
        <mxCell id="uJ0YXpQ2GnYNy6p2UynF-10" value="hamming&lt;br&gt;Detector" style="whiteSpace=wrap;html=1;shadow=1;fontSize=18;fillColor=#f5f5f5;strokeColor=#666666;" vertex="1" parent="1">
          <mxGeometry x="370" y="720" width="120" height="60" as="geometry" />
        </mxCell>
        <mxCell id="uJ0YXpQ2GnYNy6p2UynF-19" style="edgeStyle=orthogonalEdgeStyle;rounded=0;orthogonalLoop=1;jettySize=auto;html=1;entryX=1;entryY=0.5;entryDx=0;entryDy=0;" edge="1" parent="1" source="uJ0YXpQ2GnYNy6p2UynF-12" target="uJ0YXpQ2GnYNy6p2UynF-10">
          <mxGeometry relative="1" as="geometry" />
        </mxCell>
        <mxCell id="uJ0YXpQ2GnYNy6p2UynF-26" value="Text" style="edgeLabel;html=1;align=center;verticalAlign=middle;resizable=0;points=[];" vertex="1" connectable="0" parent="uJ0YXpQ2GnYNy6p2UynF-19">
          <mxGeometry x="-0.3125" y="2" relative="1" as="geometry">
            <mxPoint x="-13" y="-2" as="offset" />
          </mxGeometry>
        </mxCell>
        <mxCell id="uJ0YXpQ2GnYNy6p2UynF-27" value="&lt;font style=&quot;font-size: 18px;&quot;&gt;rx_b_bit&lt;/font&gt;" style="edgeLabel;html=1;align=center;verticalAlign=middle;resizable=0;points=[];" vertex="1" connectable="0" parent="uJ0YXpQ2GnYNy6p2UynF-19">
          <mxGeometry x="-0.0125" relative="1" as="geometry">
            <mxPoint as="offset" />
          </mxGeometry>
        </mxCell>
        <mxCell id="uJ0YXpQ2GnYNy6p2UynF-12" value="Demodulator&lt;br&gt;(QPSK, 8PSK&lt;br style=&quot;border-color: var(--border-color);&quot;&gt;16QAM)" style="whiteSpace=wrap;html=1;shadow=1;fontSize=18;fillColor=#f5f5f5;strokeColor=#666666;" vertex="1" parent="1">
          <mxGeometry x="600" y="720" width="120" height="60" as="geometry" />
        </mxCell>
        <mxCell id="uJ0YXpQ2GnYNy6p2UynF-13" value="결과 평가&lt;br&gt;BER_uncoded&lt;br&gt;BER_coded" style="whiteSpace=wrap;html=1;shadow=1;fontSize=18;fillColor=#f5f5f5;strokeColor=#666666;" vertex="1" parent="1">
          <mxGeometry x="0.5" y="715" width="120" height="70" as="geometry" />
        </mxCell>
      </root>
    </mxGraphModel>
  </diagram>
</mxfile>
